<?xml version="1.0" encoding="UTF-8" standalone="no"?>
<svg width="14px" height="14px" viewBox="0 0 14 14" version="1.1" xmlns="http://www.w3.org/2000/svg" xmlns:xlink="http://www.w3.org/1999/xlink">
    <!-- Generator: Sketch 3.8.3 (29802) - http://www.bohemiancoding.com/sketch -->
    <title>icon-close</title>
    <desc>Created with Sketch.</desc>
    <defs></defs>
    <g id="Page-1" stroke="none" stroke-width="1" fill="none" fill-rule="evenodd">
        <g id="Artboard-4" transform="translate(-160.000000, -227.000000)" fill="#FFFFFF">
            <path d="M172.717172,238.343434 L171.343436,239.717172 C171.154882,239.905725 170.925927,240 170.656566,240 C170.387205,240 170.15825,239.905725 169.969698,239.717172 L167.000001,236.747474 L164.030304,239.717172 C163.84175,239.905725 163.612797,240 163.343434,240 C163.074073,240 162.845119,239.905725 162.656566,239.717172 L161.282828,238.343434 C161.094275,238.154881 161,237.925927 161,237.656566 C161,237.387205 161.094275,237.15825 161.282828,236.969696 L164.252526,233.999999 L161.282828,231.030302 C161.094275,230.84175 161,230.612795 161,230.343434 C161,230.074073 161.094275,229.845118 161.282828,229.656564 L162.656566,228.282828 C162.845119,228.094275 163.074073,228 163.343434,228 C163.612797,228 163.84175,228.094275 164.030304,228.282828 L167.000001,231.252526 L169.969698,228.282828 C170.15825,228.094275 170.387205,228 170.656566,228 C170.925927,228 171.154882,228.094275 171.343436,228.282828 L172.717172,229.656564 C172.905725,229.845118 173,230.074073 173,230.343434 C173,230.612795 172.905725,230.84175 172.717172,231.030302 L169.747474,233.999999 L172.717172,236.969696 C172.905725,237.15825 173,237.387205 173,237.656566 C173,237.925927 172.905725,238.154881 172.717172,238.343434 Z" id="Page-1-Copy"></path>
        </g>
    </g>
</svg>