<?xml version="1.0" encoding="UTF-8" standalone="no"?>
<svg width="15px" height="17px" viewBox="0 0 15 17" version="1.1" xmlns="http://www.w3.org/2000/svg" xmlns:xlink="http://www.w3.org/1999/xlink">
    <!-- Generator: Sketch 3.8.3 (29802) - http://www.bohemiancoding.com/sketch -->
    <title>icon-bell copy</title>
    <desc>Created with Sketch.</desc>
    <defs></defs>
    <g id="Page-1" stroke="none" stroke-width="1" fill="none" fill-rule="evenodd">
        <g id="Artboard-4" transform="translate(-126.000000, -150.000000)" fill="#FFFFFF">
            <g id="icon-bell-copy" transform="translate(126.000000, 150.000000)">
                <g id="Layer_1">
                    <g id="_x36__6_">
                        <path d="M12.8571429,9.64285714 L12.8571429,5.35714286 C12.8571429,2.41071429 10.4464286,0 7.5,0 C4.55357143,0 2.14285714,2.41071429 2.14285714,5.35714286 L2.14285714,9.64285714 L0,13.9285714 L4.875,13.9285714 C5.14285714,15.1607143 6.21428571,16.0714286 7.5,16.0714286 C8.78571429,16.0714286 9.85714286,15.1607143 10.125,13.9285714 L15,13.9285714 L12.8571429,9.64285714 L12.8571429,9.64285714 Z M7.5,15 C6.80357143,15 6.21428571,14.5714286 6,13.9285714 L9,13.9285714 C8.78571429,14.5714286 8.19642857,15 7.5,15 L7.5,15 Z M1.60714286,12.8571429 L3.21428571,9.64285714 L3.21428571,5.35714286 C3.21428571,3 5.14285714,1.07142857 7.5,1.07142857 C9.85714286,1.07142857 11.7857143,3 11.7857143,5.35714286 L11.7857143,9.64285714 L13.3928571,12.8571429 L1.60714286,12.8571429 L1.60714286,12.8571429 Z" id="Shape"></path>
                    </g>
                </g>
            </g>
        </g>
    </g>
</svg>