<svg xmlns="http://www.w3.org/2000/svg" class="social-icon" viewBox="0 0 26 25">><path class="social-icon" d="M13.8 20.1C13.8 19.8 13.8 19.7 13.8 19.5 13.7 19.3 13.7 19.1 13.6 18.9 13.5 18.8 13.4 18.6 13.4 18.4 13.2 18.2 13.1 18 13 17.9 13 17.7 12.8 17.7 12.7 17.4 12.5 17.3 12.3 17.1 12.3 17 12.2 17 12 16.8 11.8 16.6 11.6 16.5 11.4 16.3 11.3 16.3 11.3 16.3 11.1 16.2 10.9 16 10.6 15.9 10.5 15.7 10.4 15.7L9.6 15.7C9.1 15.7 8.5 15.7 8 15.8 7.5 15.9 7 15.9 6.4 16.2 5.9 16.3 5.4 16.6 4.9 16.9 4.5 17.2 4.1 17.5 3.9 18 3.7 18.4 3.5 19 3.5 19.6 3.5 20.3 3.7 20.9 4.1 21.4 4.5 22 4.9 22.3 5.5 22.7 6 23 6.6 23.2 7.3 23.4 7.9 23.5 8.5 23.6 9.1 23.6 9.8 23.6 10.3 23.5 10.9 23.4 11.4 23.3 11.9 23.1 12.3 22.8 12.8 22.6 13.2 22.2 13.4 21.7 13.7 21.3 13.8 20.7 13.8 20.1L13.8 20.1ZM12 7.1C12 6.5 12 5.9 11.8 5.2 11.6 4.5 11.4 3.8 11.1 3.2 10.8 2.6 10.4 2 9.8 1.6 9.3 1.3 8.7 1 8 1 7.1 1 6.4 1.3 5.9 2 5.3 2.7 5.1 3.5 5.1 4.5 5.1 5 5.2 5.5 5.2 6 5.3 6.6 5.5 7 5.8 7.6 6 8.1 6.3 8.6 6.6 9 7 9.4 7.3 9.8 7.8 10 8.3 10.2 8.8 10.4 9.3 10.4 10.2 10.4 10.9 10.1 11.4 9.5 11.8 8.9 12 8.1 12 7.1L12 7.1ZM10.1 0L16.6 0 14.6 1.2 12.6 1.2C13.3 1.6 13.8 2.3 14.2 3 14.6 3.8 14.8 4.7 14.8 5.5 14.8 6.3 14.8 7 14.5 7.5 14.3 8 14 8.5 13.7 8.9 13.4 9.2 13 9.6 12.7 9.8 12.3 10.2 12 10.5 11.8 10.8 11.6 11.1 11.5 11.4 11.5 11.8 11.5 12 11.6 12.3 11.7 12.6 11.9 12.8 12.1 13 12.3 13.3 12.6 13.5 12.9 13.8 13.2 14 13.5 14.2 13.8 14.5 14.1 14.8 14.5 15.2 14.8 15.5 15 15.9 15.2 16.3 15.5 16.6 15.6 17.1 15.8 17.6 15.9 18.1 15.9 18.7 15.9 20.3 15.2 21.7 13.8 22.9 12.3 24.2 10.2 24.8 7.4 24.8 6.8 24.8 6.3 24.8 5.6 24.7 5 24.6 4.4 24.5 3.8 24.2 3.2 24 2.7 23.7 2.2 23.4 1.7 23 1.3 22.6 1 22 0.8 21.6 0.6 21 0.6 20.3 0.6 19.7 0.8 19.1 1.2 18.3 1.5 17.7 2 17.1 2.6 16.6 3.2 16.2 4 15.8 4.8 15.5 5.5 15.3 6.3 15.2 7.1 15 7.8 14.9 8.6 14.8 9.4 14.8 8.8 13.9 8.4 13.2 8.4 12.5L8.4 12.1C8.4 12 8.5 11.9 8.5 11.8 8.5 11.7 8.6 11.6 8.7 11.5 8.8 11.3 8.8 11.3 8.8 11.2 8.4 11.3 8 11.3 7.7 11.3 6.3 11.3 5 10.8 3.9 9.8 2.8 8.8 2.3 7.6 2.3 6.1 2.3 4.7 2.8 3.4 3.8 2.3 4.7 1.3 5.9 0.6 7.3 0.3 8.2 0.1 9.1 0 10.1 0L10.1 0ZM25.6 3.8L25.6 5.8 21.8 5.8 21.8 9.6 19.8 9.6 19.8 5.8 16 5.8 16 3.8 19.8 3.8 19.8 0 21.8 0 21.8 3.8 25.6 3.8 25.6 3.8Z"/></svg>
