<?xml version="1.0" encoding="UTF-8" standalone="no"?>
<svg width="32px" height="33px" viewBox="0 0 32 33" version="1.1" xmlns="http://www.w3.org/2000/svg" xmlns:xlink="http://www.w3.org/1999/xlink">
    <!-- Generator: Sketch 3.8.3 (29802) - http://www.bohemiancoding.com/sketch -->
    <title>icon-visits</title>
    <desc>Created with Sketch.</desc>
    <defs></defs>
    <g id="Page-1" stroke="none" stroke-width="1" fill="none" fill-rule="evenodd">
        <g id="Artboard-4" transform="translate(-202.000000, -178.000000)" fill="#FFFFFF">
            <g id="icon-visits" transform="translate(202.000000, 178.333333)">
                <g id="Line_12">
                    <g id="_x35__10_">
                        <path d="M14,0 L12,0 C10.9,0 10,0.9 10,2 L10,30 C10,31.1 10.9,32 12,32 L14,32 C15.1,32 16,31.1 16,30 L16,2 C16,0.9 15.1,0 14,0 L14,0 Z M14,29 C14,29.6 13.6,30 13,30 C12.4,30 12,29.6 12,29 L12,3 C12,2.4 12.4,2 13,2 C13.6,2 14,2.4 14,3 L14,29 L14,29 Z M4,9 L2,9 C0.9,9 0,9.9 0,11 L0,30 C0,31.1 0.9,32 2,32 L4,32 C5.1,32 6,31.1 6,30 L6,11 C6,9.9 5.1,9 4,9 L4,9 Z M4,29 C4,29.6 3.6,30 3,30 C2.4,30 2,29.6 2,29 L2,12 C2,11.4 2.4,11 3,11 C3.6,11 4,11.4 4,12 L4,29 L4,29 Z M24,16 L22,16 C20.9,16 20,16.9 20,18 L20,30 C20,31.1 20.9,32 22,32 L24,32 C25.1,32 26,31.1 26,30 L26,18 C26,16.9 25.1,16 24,16 L24,16 Z M24,29 C24,29.6 23.6,30 23,30 C22.4,30 22,29.6 22,29 L22,19 C22,18.4 22.4,18 23,18 C23.6,18 24,18.4 24,19 L24,29 L24,29 Z" id="Shape"></path>
                    </g>
                </g>
            </g>
        </g>
    </g>
</svg>