<svg xmlns="http://www.w3.org/2000/svg" class="social-icon" viewBox="0 0 31 25"><g fill="none"><path d="M30.6 2.9C29.4 3.3 28.3 3.7 27 3.8 28.3 3.1 29.3 1.9 29.7 0.5 28.5 1.2 27.2 1.7 25.8 1.9 24.8 0.7 23.1 0 21.5 0 18.1 0 15.4 2.7 15.4 6.1 15.4 6.6 15.5 7 15.6 7.5 10.5 7.2 6 4.8 3 1.1 2.4 2 2.1 3.1 2.1 4.2 2.1 6.3 3.2 8.1 4.8 9.3 3.8 9.3 2.9 9 2 8.5L2 8.6C2 11.6 4.2 14 6.9 14.5 6.4 14.6 5.9 14.7 5.4 14.7 5 14.7 4.6 14.7 4.3 14.6 5 17 7.3 18.8 9.9 18.9 7.9 20.6 5.2 21.5 2.3 21.5 1.9 21.5 1.3 21.5 0.8 21.4 3.5 23.1 6.8 24.2 10.2 24.2 21.4 24.2 27.5 14.9 27.5 6.9L27.5 6.1C28.7 5.2 29.7 4.1 30.6 2.9L30.6 2.9Z"/></g></svg>
