<?xml version="1.0" encoding="UTF-8" standalone="no"?>
<svg width="32px" height="32px" viewBox="0 0 32 32" version="1.1" xmlns="http://www.w3.org/2000/svg" xmlns:xlink="http://www.w3.org/1999/xlink">
    <!-- Generator: Sketch 3.8.3 (29802) - http://www.bohemiancoding.com/sketch -->
    <title>icon-dashboard</title>
    <desc>Created with Sketch.</desc>
    <defs></defs>
    <g id="Page-1" stroke="none" stroke-width="1" fill="none" fill-rule="evenodd">
        <g id="Artboard-4" transform="translate(-203.000000, -45.000000)" fill="#FFFFFF">
            <g id="icon-dashboard" transform="translate(203.000000, 45.000000)">
                <g id="Line_2">
                    <g id="_x31_0_20_">
                        <path d="M23,18 C24.7,18 26,16.7 26,15 C26,13.3 24.7,12 23,12 C21.3,12 20,13.3 20,15 C20,16.7 21.3,18 23,18 L23,18 Z M22,14 L24,14 L24,16 L22,16 L22,14 L22,14 Z M23,26 C24.7,26 26,24.7 26,23 C26,21.3 24.7,20 23,20 C21.3,20 20,21.3 20,23 C20,24.7 21.3,26 23,26 L23,26 Z M22,22 L24,22 L24,24 L22,24 L22,22 L22,22 Z M15,26 C16.7,26 18,24.7 18,23 C18,21.3 16.7,20 15,20 C13.3,20 12,21.3 12,23 C12,24.7 13.3,26 15,26 L15,26 Z M14,22 L16,22 L16,24 L14,24 L14,22 L14,22 Z M26,0 L4,0 C1.8,0 0,1.8 0,4 L0,28 C0,30.2 1.8,32 4,32 L26,32 C28.2,32 30,30.2 30,28 L30,4 C30,1.8 28.2,0 26,0 L26,0 Z M28,28 C28,29.1 27.1,30 26,30 L4,30 C2.9,30 2,29.1 2,28 L2,8 L28,8 L28,28 L28,28 Z M28,6 L2,6 L2,4 C2,2.9 2.9,2 4,2 L26,2 C27.1,2 28,2.9 28,4 L28,6 L28,6 Z M15,18 C16.7,18 18,16.7 18,15 C18,13.3 16.7,12 15,12 C13.3,12 12,13.3 12,15 C12,16.7 13.3,18 15,18 L15,18 Z M14,14 L16,14 L16,16 L14,16 L14,14 L14,14 Z M7,26 C8.7,26 10,24.7 10,23 C10,21.3 8.7,20 7,20 C5.3,20 4,21.3 4,23 C4,24.7 5.3,26 7,26 L7,26 Z M6,22 L8,22 L8,24 L6,24 L6,22 L6,22 Z M7,18 C8.7,18 10,16.7 10,15 C10,13.3 8.7,12 7,12 C5.3,12 4,13.3 4,15 C4,16.7 5.3,18 7,18 L7,18 Z M6,14 L8,14 L8,16 L6,16 L6,14 L6,14 Z" id="Shape"></path>
                    </g>
                </g>
            </g>
        </g>
    </g>
</svg>