<?xml version="1.0" encoding="UTF-8" standalone="no"?>
<svg width="32px" height="33px" viewBox="0 0 32 33" version="1.1" xmlns="http://www.w3.org/2000/svg" xmlns:xlink="http://www.w3.org/1999/xlink">
    <!-- Generator: Sketch 3.8.3 (29802) - http://www.bohemiancoding.com/sketch -->
    <title>icon-members</title>
    <desc>Created with Sketch.</desc>
    <defs></defs>
    <g id="Page-1" stroke="none" stroke-width="1" fill="none" fill-rule="evenodd">
        <g id="Artboard-4" transform="translate(-202.000000, -111.000000)" fill="#FFFFFF">
            <g id="icon-members" transform="translate(202.000000, 111.666667)">
                <g id="Line_5">
                    <g id="_x37__17_">
                        <path d="M18,16.4 C19.3,14.7 20,12.5 20,10 C20,4.5 16,-1.77635684e-15 11,-1.77635684e-15 C6,0 2,4.5 2,10 C2,12.4 2.8,14.6 4,16.4 C1.7,17.2 0,19.4 0,22 L0,26 C0,29.3 2.7,32 6,32 L16,32 C19.3,32 22,29.3 22,26 L22,22 C22,19.4 20.3,17.2 18,16.4 L18,16.4 Z M4,10 C4,5.6 7.1,2 11,2 C14.9,2 18,5.6 18,10 C18,14.4 14.9,18 11,18 C7.1,18 4,14.4 4,10 L4,10 Z M20,25.5 C20,28 17.8,30 15.1,30 L6.9,30 C4.2,30 2,28 2,25.5 L2,22.5 C2,20.4 3.6,18.6 5.8,18.1 C7.2,19.3 9,20 11,20 C13,20 14.8,19.3 16.2,18.1 C18.4,18.6 20,20.3 20,22.5 L20,25.5 L20,25.5 Z M23,8 L31,8 C31.6,8 32,7.6 32,7 C32,6.4 31.6,6 31,6 L23,6 C22.4,6 22,6.4 22,7 C22,7.6 22.4,8 23,8 L23,8 Z M31,24 L25,24 C24.4,24 24,24.4 24,25 C24,25.6 24.4,26 25,26 L31,26 C31.6,26 32,25.6 32,25 C32,24.4 31.6,24 31,24 L31,24 Z M31,12 L23,12 C22.4,12 22,12.4 22,13 C22,13.6 22.4,14 23,14 L31,14 C31.6,14 32,13.6 32,13 C32,12.4 31.6,12 31,12 L31,12 Z M31,18 L25,18 C24.4,18 24,18.4 24,19 C24,19.6 24.4,20 25,20 L31,20 C31.6,20 32,19.6 32,19 C32,18.4 31.6,18 31,18 L31,18 Z" id="Shape"></path>
                    </g>
                </g>
            </g>
        </g>
    </g>
</svg>