<?xml version="1.0" encoding="UTF-8" standalone="no"?>
<svg width="32px" height="32px" viewBox="0 0 32 32" version="1.1" xmlns="http://www.w3.org/2000/svg" xmlns:xlink="http://www.w3.org/1999/xlink">
    <!-- Generator: Sketch 3.8.3 (29802) - http://www.bohemiancoding.com/sketch -->
    <title>icon-settings</title>
    <desc>Created with Sketch.</desc>
    <defs></defs>
    <g id="Page-1" stroke="none" stroke-width="1" fill="none" fill-rule="evenodd">
        <g id="Artboard-4" transform="translate(-200.000000, -245.000000)" fill="#FFFFFF">
            <g id="icon-settings" transform="translate(200.000000, 245.000000)">
                <g id="Line_6">
                    <g id="_x32__16_">
                        <path d="M26,24 L14.9,24 C14.5,22.3 12.9,21 11,21 C9.1,21 7.6,22.3 7.1,24 L6,24 C5.4,24 5,24.4 5,25 C5,25.6 5.4,26 6,26 L7.1,26 C7.5,27.7 9.1,29 11,29 C12.9,29 14.4,27.7 14.9,26 L26,26 C26.6,26 27,25.6 27,25 C27,24.4 26.6,24 26,24 L26,24 Z M11,27.4 C9.7,27.4 8.6,26.3 8.6,25 C8.6,23.7 9.7,22.6 11,22.6 C12.3,22.6 13.4,23.7 13.4,25 C13.4,26.3 12.3,27.4 11,27.4 L11,27.4 Z M26,8 L14.9,8 C14.5,6.3 12.9,5 11,5 C9.1,5 7.6,6.3 7.1,8 L6,8 C5.4,8 5,8.4 5,9 C5,9.6 5.4,10 6,10 L7.1,10 C7.5,11.7 9.1,13 11,13 C12.9,13 14.4,11.7 14.9,10 L26,10 C26.6,10 27,9.6 27,9 C27,8.4 26.6,8 26,8 L26,8 Z M11,11.4 C9.7,11.4 8.6,10.3 8.6,9 C8.6,7.7 9.7,6.6 11,6.6 C12.3,6.6 13.4,7.7 13.4,9 C13.4,10.3 12.3,11.4 11,11.4 L11,11.4 Z M26,16 L23.9,16 C23.5,14.3 21.9,13 20,13 C18.1,13 16.6,14.3 16.1,16 L6,16 C5.4,16 5,16.4 5,17 C5,17.6 5.4,18 6,18 L16.1,18 C16.5,19.7 18.1,21 20,21 C21.9,21 23.4,19.7 23.9,18 L26,18 C26.6,18 27,17.6 27,17 C27,16.4 26.6,16 26,16 L26,16 Z M20,19.4 C18.7,19.4 17.6,18.3 17.6,17 C17.6,15.7 18.7,14.6 20,14.6 C21.3,14.6 22.4,15.7 22.4,17 C22.4,18.3 21.3,19.4 20,19.4 L20,19.4 Z M28,0 L4,0 C1.8,0 0,1.8 0,4 L0,28 C0,30.2 1.8,32 4,32 L28,32 C30.2,32 32,30.2 32,28 L32,4 C32,1.8 30.2,0 28,0 L28,0 Z M30,28 C30,29.1 29.1,30 28,30 L4,30 C2.9,30 2,29.1 2,28 L2,4 C2,2.9 2.9,2 4,2 L28,2 C29.1,2 30,2.9 30,4 L30,28 L30,28 Z" id="Shape"></path>
                    </g>
                </g>
            </g>
        </g>
    </g>
</svg>